Results
version=1
nRows=4
nColumns=213
inDegrees=yes
endheader
time	platform_rx	platform_ry	platform_rz	platform_ty	pelvis_tilt	pelvis_list	pelvis_rotation	pelvis_tx	pelvis_ty	pelvis_tz	hip_flexion_r	hip_adduction_r	hip_rotation_r	knee_angle_r	knee_angle_r_beta	ankle_angle_r	subtalar_angle_r	mtp_angle_r	hip_flexion_l	hip_adduction_l	hip_rotation_l	knee_angle_l	knee_angle_l_beta	ankle_angle_l	subtalar_angle_l	mtp_angle_l	lumbar_extension	lumbar_bending	lumbar_rotation	arm_flex_r	arm_add_r	arm_rot_r	elbow_flex_r	pro_sup_r	wrist_flex_r	wrist_dev_r	arm_flex_l	arm_add_l	arm_rot_l	elbow_flex_l	pro_sup_l	wrist_flex_l	wrist_dev_l	platform_rx_u	platform_ry_u	platform_rz_u	platform_ty_u	pelvis_tilt_u	pelvis_list_u	pelvis_rotation_u	pelvis_tx_u	pelvis_ty_u	pelvis_tz_u	hip_flexion_r_u	hip_adduction_r_u	hip_rotation_r_u	knee_angle_r_u	knee_angle_r_beta_u	ankle_angle_r_u	subtalar_angle_r_u	mtp_angle_r_u	hip_flexion_l_u	hip_adduction_l_u	hip_rotation_l_u	knee_angle_l_u	knee_angle_l_beta_u	ankle_angle_l_u	subtalar_angle_l_u	mtp_angle_l_u	lumbar_extension_u	lumbar_bending_u	lumbar_rotation_u	arm_flex_r_u	arm_add_r_u	arm_rot_r_u	elbow_flex_r_u	pro_sup_r_u	wrist_flex_r_u	wrist_dev_r_u	arm_flex_l_u	arm_add_l_u	arm_rot_l_u	elbow_flex_l_u	pro_sup_l_u	wrist_flex_l_u	wrist_dev_l_u	addbrev_r.activation	addlong_r.activation	addlong_r.fiber_length	addmagDist_r.activation	addmagIsch_r.activation	addmagIsch_r.fiber_length	addmagMid_r.activation	addmagProx_r.activation	bflh_r.activation	bflh_r.fiber_length	bfsh_r.activation	edl_r.activation	edl_r.fiber_length	ehl_r.activation	ehl_r.fiber_length	fdl_r.activation	fdl_r.fiber_length	fhl_r.activation	fhl_r.fiber_length	gaslat_r.activation	gaslat_r.fiber_length	gasmed_r.activation	gasmed_r.fiber_length	glmax1_r.activation	glmax2_r.activation	glmax3_r.activation	glmed1_r.activation	glmed2_r.activation	glmed3_r.activation	glmin1_r.activation	glmin2_r.activation	glmin3_r.activation	glmin3_r.fiber_length	grac_r.activation	iliacus_r.activation	perbrev_r.activation	perbrev_r.fiber_length	perlong_r.activation	perlong_r.fiber_length	piri_r.activation	piri_r.fiber_length	psoas_r.activation	recfem_r.activation	recfem_r.fiber_length	sart_r.activation	semimem_r.activation	semimem_r.fiber_length	semiten_r.activation	semiten_r.fiber_length	soleus_r.activation	soleus_r.fiber_length	tfl_r.activation	tfl_r.fiber_length	tibant_r.activation	tibant_r.fiber_length	tibpost_r.activation	tibpost_r.fiber_length	vasint_r.activation	vasint_r.fiber_length	vaslat_r.activation	vaslat_r.fiber_length	vasmed_r.activation	vasmed_r.fiber_length	addbrev_l.activation	addlong_l.activation	addlong_l.fiber_length	addmagDist_l.activation	addmagIsch_l.activation	addmagIsch_l.fiber_length	addmagMid_l.activation	addmagProx_l.activation	bflh_l.activation	bflh_l.fiber_length	bfsh_l.activation	edl_l.activation	edl_l.fiber_length	ehl_l.activation	ehl_l.fiber_length	fdl_l.activation	fdl_l.fiber_length	fhl_l.activation	fhl_l.fiber_length	gaslat_l.activation	gaslat_l.fiber_length	gasmed_l.activation	gasmed_l.fiber_length	glmax1_l.activation	glmax2_l.activation	glmax3_l.activation	glmed1_l.activation	glmed2_l.activation	glmed3_l.activation	glmin1_l.activation	glmin2_l.activation	glmin3_l.activation	glmin3_l.fiber_length	grac_l.activation	iliacus_l.activation	perbrev_l.activation	perbrev_l.fiber_length	perlong_l.activation	perlong_l.fiber_length	piri_l.activation	piri_l.fiber_length	psoas_l.activation	recfem_l.activation	recfem_l.fiber_length	sart_l.activation	semimem_l.activation	semimem_l.fiber_length	semiten_l.activation	semiten_l.fiber_length	soleus_l.activation	soleus_l.fiber_length	tfl_l.activation	tfl_l.fiber_length	tibant_l.activation	tibant_l.fiber_length	tibpost_l.activation	tibpost_l.fiber_length	vasint_l.activation	vasint_l.fiber_length	vaslat_l.activation	vaslat_l.fiber_length	vasmed_l.activation	vasmed_l.fiber_length
      0.00301746	     20.00000000	     -0.00000000	     -0.00000000	      0.25000000	    -28.02344302	     -0.00000001	     -0.00000000	     -0.03601699	      0.39511866	     -0.00000000	    124.92952594	    -18.06511759	      9.36843557	    127.94678809	    127.94678809	     33.15677153	     -0.00000000	     -0.00000000	    124.92952595	    -18.06511425	      9.36843562	    127.94678809	    127.94678809	     33.15677134	     -0.00000000	      0.00000000	     -0.10505559	      0.00000001	      0.00000000	     89.94536615	     -0.00113293	     89.82610361	      0.16112667	      0.15775035	     -0.00000000	      0.00000000	     89.94539632	     -0.00113068	     89.81869433	      0.16112645	      0.15775038	     -0.00000000	      0.00000000	      0.00000000	     -0.00000000	      0.00000000	     -0.00000000	     52.63401008	     -0.00000510	     -0.00000170	     -0.01141727	      0.07869697	     -0.00000001	    -46.87598845	     -1.45128271	     26.43142245	    -35.79136850	    -35.79136850	   -613.65378285	     -0.00000000	      0.00000000	    -46.87598301	     -1.45127801	     26.43143385	    -35.79136680	    -35.79136680	   -613.65378113	     -0.00000000	      0.00000000	    -69.53552377	      0.00000727	      0.00000139	     17.49231215	     -0.72787968	     -0.37702977	      2.02669317	     -0.17632651	     -0.00000000	      0.00000000	     17.49220334	     -0.72784407	     -0.37703794	      2.02655391	     -0.17630430	     -0.00000000	      0.00000000	      0.01000000	      0.01000000	      0.11292905	      0.01000000	      0.01000000	      0.23320924	      0.01000000	      0.01000000	      0.01000000	      0.12073928	      0.01000000	      0.01000000	      0.04866111	      0.01000000	      0.05579538	      0.01000000	      0.04778415	      0.01000000	      0.05683254	      0.01000000	      0.04821369	      0.01000000	      0.03084931	      0.01000000	      0.01000000	      0.01000000	      0.01000000	      0.01000000	      0.01000000	      0.01000000	      0.01000000	      0.01000000	      0.04050539	      0.01000000	      0.01000000	      0.01000000	      0.05102531	      0.01000000	      0.05791759	      0.01000000	      0.03247052	      0.01000000	      0.01000000	      0.05322897	      0.01000000	      0.01000000	      0.07465311	      0.01000000	      0.22671488	      0.01000000	      0.06270986	      0.01000000	      0.02401564	      0.01000000	      0.04179476	      0.01000000	      0.04232550	      0.01000000	      0.14748786	      0.01000000	      0.14368848	      0.01000000	      0.14043135	      0.01000000	      0.01000000	      0.11292904	      0.01000000	      0.01000000	      0.23320924	      0.01000000	      0.01000000	      0.01000000	      0.12073928	      0.01000000	      0.01000000	      0.04866112	      0.01000000	      0.05579538	      0.01000000	      0.04778415	      0.01000000	      0.05683254	      0.01000000	      0.04821369	      0.01000000	      0.03084931	      0.01000000	      0.01000000	      0.01000000	      0.01000000	      0.01000000	      0.01000000	      0.01000000	      0.01000000	      0.01000000	      0.04050539	      0.01000000	      0.01000000	      0.01000000	      0.05102531	      0.01000000	      0.05791759	      0.01000000	      0.03247052	      0.01000000	      0.01000000	      0.05322897	      0.01000000	      0.01000000	      0.07465311	      0.01000000	      0.22671488	      0.01000000	      0.06270986	      0.01000000	      0.02401564	      0.01000000	      0.04179476	      0.01000000	      0.04232550	      0.01000000	      0.14748786	      0.01000000	      0.14368848	      0.01000000	      0.14043135
      0.00345202	     20.00000000	     -0.00000000	      0.00000000	      0.25000000	    -27.99893455	     -0.00000001	     -0.00000000	     -0.03602233	      0.39515532	     -0.00000000	    124.90767207	    -18.06579581	      9.38070455	    127.93004540	    127.93004540	     32.87166916	     -0.00000000	     -0.00000000	    124.90767208	    -18.06579246	      9.38070461	    127.93004541	    127.93004541	     32.87166898	     -0.00000000	      0.00000000	     -0.13743687	      0.00000001	      0.00000000	     89.95351356	     -0.00147188	     89.82592814	      0.16207044	      0.15766774	     -0.00000000	      0.00000000	     89.95354368	     -0.00146962	     89.81851886	      0.16207016	      0.15766779	     -0.00000000	      0.00000000	      0.00000000	     -0.00000000	      0.00000000	     -0.00000000	     60.16170452	     -0.00000583	     -0.00000193	     -0.01315420	      0.09005767	     -0.00000001	    -53.70772390	     -1.67055570	     30.02497770	    -41.28429118	    -41.28429118	   -698.34230762	     -0.00000000	     -0.00000000	    -53.70771769	     -1.67055034	     30.02499072	    -41.28428924	    -41.28428924	   -698.34230561	     -0.00000000	      0.00000000	    -79.49390031	      0.00000831	      0.00000159	     20.00524872	     -0.83213802	     -0.43054981	      2.31694232	     -0.20382174	     -0.00000000	      0.00000000	     20.00512438	     -0.83209753	     -0.43055914	      2.31678376	     -0.20379647	     -0.00000000	      0.00000000	      0.01000000	      0.01000000	      0.11291924	      0.01000000	      0.01000000	      0.23318472	      0.01000000	      0.01000000	      0.01000000	      0.12074061	      0.01000000	      0.01000000	      0.04879048	      0.01000000	      0.05594897	      0.01000000	      0.04778179	      0.01000000	      0.05682105	      0.01000000	      0.04815401	      0.01000000	      0.03080086	      0.01000000	      0.01000000	      0.01000000	      0.01000000	      0.01000000	      0.01000000	      0.01000000	      0.01000000	      0.01000000	      0.04049712	      0.01000000	      0.01000000	      0.01000000	      0.05101669	      0.01000000	      0.05790641	      0.01000000	      0.03246541	      0.01000000	      0.01000000	      0.05322765	      0.01000000	      0.01000000	      0.07465389	      0.01000000	      0.22671583	      0.01000000	      0.06262949	      0.01000000	      0.02401564	      0.01000000	      0.04196714	      0.01000000	      0.04232001	      0.01000000	      0.14748155	      0.01000000	      0.14368246	      0.01000000	      0.14042556	      0.01000000	      0.01000000	      0.11291924	      0.01000000	      0.01000000	      0.23318472	      0.01000000	      0.01000000	      0.01000000	      0.12074061	      0.01000000	      0.01000000	      0.04879048	      0.01000000	      0.05594897	      0.01000000	      0.04778179	      0.01000000	      0.05682105	      0.01000000	      0.04815401	      0.01000000	      0.03080086	      0.01000000	      0.01000000	      0.01000000	      0.01000000	      0.01000000	      0.01000000	      0.01000000	      0.01000000	      0.01000000	      0.04049712	      0.01000000	      0.01000000	      0.01000000	      0.05101669	      0.01000000	      0.05790641	      0.01000000	      0.03246541	      0.01000000	      0.01000000	      0.05322765	      0.01000000	      0.01000000	      0.07465389	      0.01000000	      0.22671583	      0.01000000	      0.06262949	      0.01000000	      0.02401564	      0.01000000	      0.04196714	      0.01000000	      0.04232001	      0.01000000	      0.14748155	      0.01000000	      0.14368246	      0.01000000	      0.14042556
      0.00406808	     20.00000000	     -0.00000000	      0.00000000	      0.25000000	    -27.95858910	     -0.00000001	     -0.00000000	     -0.03603121	      0.39521577	     -0.00000000	    124.87159265	    -18.06692174	      9.40074411	    127.90216249	    127.90216249	     32.40486962	     -0.00000000	     -0.00000000	    124.87159267	    -18.06691838	      9.40074418	    127.90216250	    127.90216250	     32.40486943	     -0.00000000	      0.00000000	     -0.19075335	      0.00000002	      0.00000000	     89.96693535	     -0.00203008	     89.82563949	      0.16362462	      0.15753033	     -0.00000000	      0.00000000	     89.96696538	     -0.00202779	     89.81823020	      0.16362424	      0.15753039	     -0.00000000	      0.00000000	      0.00000000	     -0.00000000	      0.00000000	     -0.00000000	     70.81277678	     -0.00000685	     -0.00000227	     -0.01566566	      0.10618357	     -0.00000001	    -63.42792258	     -1.98557676	     35.01031283	    -49.27785380	    -49.27785380	   -816.77851458	     -0.00000000	     -0.00000000	    -63.42791528	     -1.98557045	     35.01032814	    -49.27785151	    -49.27785151	   -816.77851217	     -0.00000000	      0.00000000	    -93.58984608	      0.00000977	      0.00000187	     23.56764207	     -0.98002683	     -0.50661335	      2.72866769	     -0.24207138	     -0.00000000	      0.00000000	     23.56749567	     -0.97997933	     -0.50662432	      2.72848154	     -0.24204173	     -0.00000000	      0.00000000	      0.01000000	      0.01000000	      0.11290242	      0.01000000	      0.01000000	      0.23317696	      0.01000000	      0.01000000	      0.01000000	      0.12074297	      0.01000000	      0.01000000	      0.04901309	      0.01000000	      0.05620958	      0.01000000	      0.04777736	      0.01000000	      0.05679908	      0.01000000	      0.04805362	      0.01000000	      0.03072510	      0.01000000	      0.01000000	      0.01000000	      0.01000000	      0.01000000	      0.01000000	      0.01000000	      0.01000000	      0.01000000	      0.04048289	      0.01000000	      0.01000000	      0.01000000	      0.05100105	      0.01000000	      0.05788533	      0.01000000	      0.03245634	      0.01000000	      0.01000000	      0.05322520	      0.01000000	      0.01000000	      0.07465534	      0.01000000	      0.22671750	      0.01000000	      0.06249479	      0.01000000	      0.02401564	      0.01000000	      0.04225620	      0.01000000	      0.04230967	      0.01000000	      0.14747091	      0.01000000	      0.14367230	      0.01000000	      0.14041580	      0.01000000	      0.01000000	      0.11290241	      0.01000000	      0.01000000	      0.23317696	      0.01000000	      0.01000000	      0.01000000	      0.12074297	      0.01000000	      0.01000000	      0.04901309	      0.01000000	      0.05620958	      0.01000000	      0.04777736	      0.01000000	      0.05679908	      0.01000000	      0.04805362	      0.01000000	      0.03072510	      0.01000000	      0.01000000	      0.01000000	      0.01000000	      0.01000000	      0.01000000	      0.01000000	      0.01000000	      0.01000000	      0.04048289	      0.01000000	      0.01000000	      0.01000000	      0.05100105	      0.01000000	      0.05788533	      0.01000000	      0.03245634	      0.01000000	      0.01000000	      0.05322520	      0.01000000	      0.01000000	      0.07465534	      0.01000000	      0.22671750	      0.01000000	      0.06249479	      0.01000000	      0.02401564	      0.01000000	      0.04225620	      0.01000000	      0.04230967	      0.01000000	      0.14747091	      0.01000000	      0.14367230	      0.01000000	      0.14041580
      0.00500065	     20.00000000	     -0.00000000	      0.00000000	      0.25000000	    -27.88505246	     -0.00000002	     -0.00000001	     -0.03604763	      0.39532619	     -0.00000000	    124.80555406	    -18.06899970	      9.43681560	    127.85037525	    127.85037525	     31.56092532	     -0.00000000	     -0.00000000	    124.80555409	    -18.06899634	      9.43681568	    127.85037526	    127.85037526	     31.56092514	     -0.00000000	      0.00000000	     -0.28796132	      0.00000003	      0.00000001	     89.99142830	     -0.00304855	     89.82511304	      0.16646033	      0.15727871	     -0.00000000	      0.00000000	     89.99145818	     -0.00304621	     89.81770374	      0.16645975	      0.15727880	     -0.00000000	      0.00000000	      0.00000000	     -0.00000000	      0.00000000	     -0.00000000	     86.88175315	     -0.00000841	     -0.00000276	     -0.01958818	      0.13063218	     -0.00000001	    -78.21130326	     -2.47325654	     42.29331958	    -61.89575128	    -61.89575128	   -992.40679144	     -0.00000000	     -0.00000000	    -78.21129430	     -2.47324880	     42.29333837	    -61.89574847	    -61.89574847	   -992.40678838	     -0.00000000	      0.00000000	   -114.86911938	      0.00001199	      0.00000231	     28.95975009	     -1.20428092	     -0.62260559	      3.35304994	     -0.29680820	      0.00000000	      0.00000000	     28.95957019	     -1.20422248	     -0.62261909	      3.35282098	     -0.29677171	     -0.00000000	      0.00000000	      0.01000000	      0.01000000	      0.11287034	      0.01000000	      0.01000000	      0.23313595	      0.01000000	      0.01000000	      0.01000000	      0.12074765	      0.01000000	      0.01000000	      0.04943515	      0.01000000	      0.05669763	      0.01000000	      0.04776774	      0.01000000	      0.05675023	      0.01000000	      0.04789050	      0.01000000	      0.03060870	      0.01000000	      0.01000000	      0.01000000	      0.01000000	      0.01000000	      0.01000000	      0.01000000	      0.01000000	      0.01000000	      0.04045585	      0.01000000	      0.01000000	      0.01000000	      0.05096902	      0.01000000	      0.05783960	      0.01000000	      0.03243832	      0.01000000	      0.01000000	      0.05322004	      0.01000000	      0.01000000	      0.07465833	      0.01000000	      0.22672083	      0.01000000	      0.06224483	      0.01000000	      0.02401564	      0.01000000	      0.04279241	      0.01000000	      0.04228707	      0.01000000	      0.14745091	      0.01000000	      0.14365313	      0.01000000	      0.14039744	      0.01000000	      0.01000000	      0.11287033	      0.01000000	      0.01000000	      0.23313595	      0.01000000	      0.01000000	      0.01000000	      0.12074765	      0.01000000	      0.01000000	      0.04943515	      0.01000000	      0.05669763	      0.01000000	      0.04776774	      0.01000000	      0.05675023	      0.01000000	      0.04789050	      0.01000000	      0.03060870	      0.01000000	      0.01000000	      0.01000000	      0.01000000	      0.01000000	      0.01000000	      0.01000000	      0.01000000	      0.01000000	      0.04045585	      0.01000000	      0.01000000	      0.01000000	      0.05096902	      0.01000000	      0.05783960	      0.01000000	      0.03243832	      0.01000000	      0.01000000	      0.05322004	      0.01000000	      0.01000000	      0.07465833	      0.01000000	      0.22672083	      0.01000000	      0.06224483	      0.01000000	      0.02401564	      0.01000000	      0.04279241	      0.01000000	      0.04228707	      0.01000000	      0.14745091	      0.01000000	      0.14365313	      0.01000000	      0.14039744
